<svg width="33" height="29" viewBox="0 0 33 29" fill="none" xmlns="http://www.w3.org/2000/svg">
<path d="M24.0571 18.4502H22.5367L21.9979 18.0013C24.3073 15.6738 25.5004 12.4984 24.8461 9.12354C23.9416 4.50179 19.4768 0.811036 14.0883 0.245786C5.94781 -0.618714 -0.903297 5.29979 0.0974274 12.3322C0.751747 16.9872 5.02407 20.8442 10.3741 21.6255C14.2808 22.1908 17.9565 21.16 20.6508 19.165L21.1704 19.6305V20.9439L29.3494 28.0095C30.1384 28.6912 31.4278 28.6912 32.2168 28.0095C33.0059 27.3279 33.0059 26.214 32.2168 25.5324L24.0571 18.4502ZM12.5103 18.4502C7.71833 18.4502 3.85014 15.1085 3.85014 10.9689C3.85014 6.82929 7.71833 3.48766 12.5103 3.48766C17.3022 3.48766 21.1704 6.82929 21.1704 10.9689C21.1704 15.1085 17.3022 18.4502 12.5103 18.4502Z" fill="white" fill-opacity="0.67"/>
</svg>
